ffmpeg version N-82167-g5e96558 Copyright (c) 2000-2016 the FFmpeg developers
  built with gcc 5.4.0 (Ubuntu 5.4.0-6ubuntu1~16.04.2) 20160609
  configuration: --prefix=/root/ffmpeg_build --pkg-config-flags=--static --extra-cflags=-I/root/ffmpeg_build/include --extra-ldflags=-L/root/ffmpeg_build/lib --bindir=/root/bin --enable-gpl --enable-libass --enable-libfdk-aac --enable-libfreetype --enable-libmp3lame --enable-libopus --enable-libtheora --enable-libvorbis --enable-libx264 --enable-libx265 --enable-nonfree
  libavutil      55. 35.100 / 55. 35.100
  libavcodec     57. 65.100 / 57. 65.100
  libavformat    57. 57.100 / 57. 57.100
  libavdevice    57.  2.100 / 57.  2.100
  libavfilter     6. 66.100 /  6. 66.100
  libswscale      4.  3.100 /  4.  3.100
  libswresample   2.  4.100 /  2.  4.100
  libpostproc    54.  2.100 / 54.  2.100
Input #0, matroska,webm, from '/media/yubikiri/bot/queue/3AnimePahe_Detective_Conan_-_043_720p_Fansub.mkv':
  Metadata:
    title           : 3|Text||0|0
    ENCODER         : Lavf57.57.100
  Duration: 00:24:27.26, start: 0.000000, bitrate: 909 kb/s
    Stream #0:0: Video: mpeg4 (Advanced Simple Profile), yuv420p, 640x480 [SAR 1:1 DAR 4:3], 23.98 fps, 23.98 tbr, 1k tbn, 23.98 tbc (default)
    Metadata:
      DURATION        : 00:24:27.259000000
    Stream #0:1: Audio: mp3, 48000 Hz, stereo, s16p, 128 kb/s (default)
    Metadata:
      DURATION        : 00:24:27.216000000
[libx264 @ 0x25db1e0] using SAR=1/1
[libx264 @ 0x25db1e0] using cpu capabilities: MMX2 SSE2Fast SSSE3 SSE4.2 AVX FMA3 AVX2 LZCNT BMI2
[libx264 @ 0x25db1e0] profile High, level 3.1
[libx264 @ 0x25db1e0] 264 - core 148 r2643 5c65704 - H.264/MPEG-4 AVC codec - Copyleft 2003-2015 - http://www.videolan.org/x264.html - options: cabac=1 ref=8 deblock=1:1:1 analyse=0x3:0x133 me=umh subme=7 psy=1 psy_rd=0.00:0.00 mixed_ref=1 me_range=8 chroma_me=1 trellis=0 8x8dct=1 cqm=0 deadzone=21,11 fast_pskip=1 chroma_qp_offset=0 threads=8 lookahead_threads=2 sliced_threads=0 nr=0 decimate=1 interlaced=0 bluray_compat=0 constrained_intra=0 bframes=3 b_pyramid=2 b_adapt=2 b_bias=0 direct=1 weightb=1 open_gop=0 weightp=2 keyint=240 keyint_min=24 scenecut=40 intra_refresh=0 rc_lookahead=60 rc=crf mbtree=1 crf=27.0 qcomp=0.60 qpmin=0 qpmax=69 qpstep=4 ip_ratio=1.40 aq=1:1.00
[libfdk_aac @ 0x2546f80] Note, the VBR setting is unsupported and only works with some parameter combinations
Output #0, mp4, to '/media/yubikiri/bot/queue/3AnimePahe_Detective_Conan_-_043_720p_Fansub.mkv_encoded.mp4':
  Metadata:
    encoder         : Lavf57.57.100
    Stream #0:0: Video: h264 (libx264) ([33][0][0][0] / 0x0021), yuv420p, 640x480 [SAR 1:1 DAR 4:3], q=-1--1, 23.98 fps, 11988 tbn, 23.98 tbc (default)
    Metadata:
      encoder         : Lavc57.65.100 libx264
    Side data:
      cpb: bitrate max/min/avg: 0/0/0 buffer size: 0 vbv_delay: -1
    Stream #0:1: Audio: aac (libfdk_aac) (HE-AACv2) ([64][0][0][0] / 0x0040), 48000 Hz, stereo, s16, 48 kb/s (default)
    Metadata:
      encoder         : Lavc57.65.100 libfdk_aac
Stream mapping:
  Stream #0:0 -> #0:0 (mpeg4 (native) -> h264 (libx264))
  Stream #0:1 -> #0:1 (mp3 (native) -> aac (libfdk_aac))
Press [q] to stop, [?] for help
frame=  110 fps=0.0 q=32.0 size=      85kB time=00:00:04.75 bitrate= 146.2kbits/s dup=1 drop=0 speed=9.27x    frame=  174 fps=167 q=32.0 size=     234kB time=00:00:07.40 bitrate= 258.8kbits/s dup=1 drop=0 speed=7.09x    frame=  228 fps=145 q=32.0 size=     385kB time=00:00:09.66 bitrate= 326.6kbits/s dup=1 drop=0 speed=6.16x    frame=  298 fps=144 q=32.0 size=     541kB time=00:00:12.60 bitrate= 351.3kbits/s dup=1 drop=0 speed=6.09x    frame=  360 fps=140 q=32.0 size=     669kB time=00:00:15.21 bitrate= 360.3kbits/s dup=1 drop=0 speed=5.92x    frame=  432 fps=141 q=32.0 size=     814kB time=00:00:18.15 bitrate= 367.1kbits/s dup=1 drop=0 speed=5.91x    frame=  504 fps=141 q=32.0 size=     967kB time=00:00:21.18 bitrate= 373.7kbits/s dup=1 drop=0 speed=5.93x    frame=  606 fps=149 q=32.0 size=    1108kB time=00:00:25.45 bitrate= 356.6kbits/s dup=1 drop=0 speed=6.25x    frame=  722 fps=158 q=32.0 size=    1251kB time=00:00:30.27 bitrate= 338.5kbits/s dup=1 drop=0 speed=6.61x    frame=  802 fps=158 q=32.0 size=    1425kB time=00:00:33.60 bitrate= 347.5kbits/s dup=1 drop=0 speed=6.61x    frame=  896 fps=160 q=32.0 size=    1561kB time=00:00:37.52 bitrate= 340.7kbits/s dup=1 drop=0 speed=6.71x    frame=  983 fps=160 q=32.0 size=    1701kB time=00:00:41.15 bitrate= 338.6kbits/s dup=1 drop=0 speed=6.71x    frame= 1057 fps=159 q=32.0 size=    1874kB time=00:00:44.26 bitrate= 346.8kbits/s dup=1 drop=0 speed=6.66x    frame= 1163 fps=163 q=32.0 size=    2000kB time=00:00:48.70 bitrate= 336.5kbits/s dup=1 drop=0 speed=6.81x    frame= 1246 fps=163 q=32.0 size=    2135kB time=00:00:52.11 bitrate= 335.5kbits/s dup=1 drop=0 speed=6.81x    frame= 1301 fps=159 q=32.0 size=    2302kB time=00:00:54.42 bitrate= 346.5kbits/s dup=1 drop=0 speed=6.66x    frame= 1355 fps=156 q=32.0 size=    2444kB time=00:00:56.68 bitrate= 353.2kbits/s dup=1 drop=0 speed=6.53x    frame= 1423 fps=155 q=32.0 size=    2573kB time=00:00:59.49 bitrate= 354.2kbits/s dup=1 drop=0 speed=6.48x    frame= 1492 fps=154 q=32.0 size=    2709kB time=00:01:02.40 bitrate= 355.7kbits/s dup=1 drop=0 speed=6.44x    frame= 1551 fps=147 q=32.0 size=    2810kB time=00:01:04.83 bitrate= 355.1kbits/s dup=1 drop=0 speed=6.16x    frame= 1600 fps=145 q=32.0 size=    2886kB time=00:01:06.88 bitrate= 353.5kbits/s dup=1 drop=0 speed=6.06x    frame= 1661 fps=144 q=32.0 size=    3059kB time=00:01:09.44 bitrate= 360.9kbits/s dup=1 drop=0 speed=6.02x    frame= 1732 fps=144 q=32.0 size=    3188kB time=00:01:12.42 bitrate= 360.6kbits/s dup=1 drop=0 speed=6.01x    frame= 1792 fps=142 q=32.0 size=    3364kB time=00:01:14.90 bitrate= 368.0kbits/s dup=1 drop=0 speed=5.95x    frame= 1856 fps=142 q=32.0 size=    3517kB time=00:01:17.54 bitrate= 371.6kbits/s dup=1 drop=0 speed=5.92x    frame= 1916 fps=141 q=32.0 size=    3628kB time=00:01:20.06 bitrate= 371.2kbits/s dup=1 drop=0 speed=5.89x    frame= 1972 fps=140 q=32.0 size=    3743kB time=00:01:22.41 bitrate= 372.1kbits/s dup=1 drop=0 speed=5.84x    frame= 2028 fps=139 q=32.0 size=    3867kB time=00:01:24.75 bitrate= 373.8kbits/s dup=1 drop=0 speed= 5.8x    frame= 2085 fps=138 q=32.0 size=    3957kB time=00:01:27.10 bitrate= 372.1kbits/s dup=1 drop=0 speed=5.76x    frame= 2131 fps=136 q=32.0 size=    4023kB time=00:01:29.02 bitrate= 370.2kbits/s dup=1 drop=0 speed= 5.7x    frame= 2229 fps=138 q=32.0 size=    4139kB time=00:01:33.07 bitrate= 364.3kbits/s dup=1 drop=0 speed=5.77x    frame= 2404 fps=144 q=32.0 size=    4268kB time=00:01:40.41 bitrate= 348.1kbits/s dup=1 drop=0 speed=6.03x    frame= 2524 fps=147 q=32.0 size=    4386kB time=00:01:45.45 bitrate= 340.7kbits/s dup=1 drop=0 speed=6.15x    frame= 2667 fps=151 q=32.0 size=    4494kB time=00:01:51.38 bitrate= 330.5kbits/s dup=1 drop=0 speed=6.31x    frame= 2785 fps=153 q=32.0 size=    4621kB time=00:01:56.28 bitrate= 325.6kbits/s dup=1 drop=0 speed=6.41x    frame= 2890 fps=155 q=32.0 size=    4711kB time=00:02:00.72 bitrate= 319.7kbits/s dup=1 drop=0 speed=6.47x    frame= 2954 fps=154 q=32.0 size=    4786kB time=00:02:03.37 bitrate= 317.8kbits/s dup=1 drop=0 speed=6.44x    frame= 3012 fps=153 q=32.0 size=    4838kB time=00:02:05.80 bitrate= 315.1kbits/s dup=1 drop=0 speed= 6.4x    frame= 3069 fps=152 q=32.0 size=    4896kB time=00:02:08.15 bitrate= 313.0kbits/s dup=1 drop=0 speed=6.36x    frame= 3125 fps=151 q=32.0 size=    4948kB time=00:02:10.49 bitrate= 310.6kbits/s dup=1 drop=0 speed=6.32x    frame= 3183 fps=150 q=32.0 size=    5037kB time=00:02:12.92 bitrate= 310.4kbits/s dup=1 drop=0 speed=6.28x    frame= 3255 fps=150 q=32.0 size=    5095kB time=00:02:15.91 bitrate= 307.1kbits/s dup=1 drop=0 speed=6.27x    frame= 3327 fps=150 q=32.0 size=    5154kB time=00:02:18.90 bitrate= 304.0kbits/s dup=1 drop=0 speed=6.26x    frame= 3409 fps=150 q=29.0 size=    5208kB time=00:02:22.35 bitrate= 299.7kbits/s dup=1 drop=0 speed=6.27x    frame= 3484 fps=150 q=32.0 size=    5295kB time=00:02:25.47 bitrate= 298.2kbits/s dup=1 drop=0 speed=6.27x    frame= 3553 fps=150 q=32.0 size=    5366kB time=00:02:28.33 bitrate= 296.3kbits/s dup=1 drop=0 speed=6.25x    frame= 3622 fps=150 q=32.0 size=    5445kB time=00:02:31.23 bitrate= 294.9kbits/s dup=1 drop=0 speed=6.24x    frame= 3689 fps=149 q=32.0 size=    5516kB time=00:02:34.04 bitrate= 293.3kbits/s dup=1 drop=0 speed=6.23x    frame= 3766 fps=149 q=32.0 size=    5573kB time=00:02:37.20 bitrate= 290.4kbits/s dup=1 drop=0 speed=6.21x    frame= 3815 fps=148 q=32.0 size=    5657kB time=00:02:39.29 bitrate= 290.9kbits/s dup=1 drop=0 speed=6.17x    frame= 3858 fps=147 q=32.0 size=    5749kB time=00:02:41.04 bitrate= 292.5kbits/s dup=1 drop=0 speed=6.12x    frame= 3924 fps=146 q=32.0 size=    5830kB time=00:02:43.81 bitrate= 291.5kbits/s dup=1 drop=0 speed= 6.1x    frame= 3985 fps=146 q=32.0 size=    5901kB time=00:02:46.37 bitrate= 290.5kbits/s dup=1 drop=0 speed=6.08x    frame= 4039 fps=145 q=32.0 size=    5950kB time=00:02:48.64 bitrate= 289.0kbits/s dup=1 drop=0 speed=6.05x    frame= 4083 fps=144 q=32.0 size=    6037kB time=00:02:50.43 bitrate= 290.2kbits/s dup=1 drop=0 speed=   6x    frame= 4146 fps=143 q=32.0 size=    6096kB time=00:02:53.07 bitrate= 288.5kbits/s dup=1 drop=0 speed=5.98x    frame= 4205 fps=143 q=32.0 size=    6187kB time=00:02:55.55 bitrate= 288.7kbits/s dup=1 drop=0 speed=5.96x    frame= 4248 fps=142 q=32.0 size=    6242kB time=00:02:57.34 bitrate= 288.4kbits/s dup=1 drop=0 speed=5.92x    frame= 4305 fps=141 q=32.0 size=    6317kB time=00:02:59.69 bitrate= 288.0kbits/s dup=1 drop=0 speed= 5.9x    frame= 4355 fps=141 q=32.0 size=    6355kB time=00:03:01.78 bitrate= 286.4kbits/s dup=1 drop=0 speed=5.87x    frame= 4411 fps=140 q=32.0 size=    6424kB time=00:03:04.17 bitrate= 285.7kbits/s dup=1 drop=0 speed=5.85x    frame= 4472 fps=140 q=32.0 size=    6510kB time=00:03:06.68 bitrate= 285.6kbits/s dup=1 drop=0 speed=5.84x    frame= 4542 fps=140 q=32.0 size=    6559kB time=00:03:09.59 bitrate= 283.4kbits/s dup=1 drop=0 speed=5.84x    frame= 4620 fps=140 q=32.0 size=    6630kB time=00:03:12.87 bitrate= 281.6kbits/s dup=1 drop=0 speed=5.85x    frame= 4685 fps=140 q=32.0 size=    6682kB time=00:03:15.56 bitrate= 279.9kbits/s dup=1 drop=0 speed=5.84x    frame= 4725 fps=139 q=32.0 size=    6782kB time=00:03:17.22 bitrate= 281.7kbits/s dup=1 drop=0 speed=5.78x    frame= 4759 fps=137 q=32.0 size=    6877kB time=00:03:18.63 bitrate= 283.6kbits/s dup=1 drop=0 speed=5.73x    frame= 4813 fps=137 q=32.0 size=    6946kB time=00:03:20.89 bitrate= 283.2kbits/s dup=1 drop=0 speed=5.71x    frame= 4838 fps=135 q=32.0 size=    6974kB time=00:03:21.92 bitrate= 282.9kbits/s dup=1 drop=0 speed=5.65x    frame= 4893 fps=135 q=32.0 size=    7062kB time=00:03:24.22 bitrate= 283.3kbits/s dup=1 drop=0 speed=5.64x    frame= 4960 fps=135 q=32.0 size=    7114kB time=00:03:27.04 bitrate= 281.5kbits/s dup=1 drop=0 speed=5.64x    frame= 5021 fps=135 q=32.0 size=    7198kB time=00:03:29.55 bitrate= 281.4kbits/s dup=1 drop=0 speed=5.63x    frame= 5065 fps=134 q=32.0 size=    7273kB time=00:03:31.43 bitrate= 281.8kbits/s dup=1 drop=0 speed= 5.6x    frame= 5127 fps=134 q=32.0 size=    7320kB time=00:03:33.99 bitrate= 280.2kbits/s dup=1 drop=0 speed=5.59x    frame= 5189 fps=134 q=32.0 size=    7396kB time=00:03:36.55 bitrate= 279.8kbits/s dup=1 drop=0 speed=5.59x    frame= 5245 fps=133 q=32.0 size=    7471kB time=00:03:38.94 bitrate= 279.5kbits/s dup=1 drop=0 speed=5.57x    frame= 5295 fps=133 q=32.0 size=    7539kB time=00:03:41.03 bitrate= 279.4kbits/s dup=1 drop=0 speed=5.55x    frame= 5324 fps=132 q=32.0 size=    7616kB time=00:03:42.23 bitrate= 280.8kbits/s dup=1 drop=0 speed=5.51x    frame= 5386 fps=132 q=32.0 size=    7710kB time=00:03:44.79 bitrate= 281.0kbits/s dup=1 drop=0 speed= 5.5x    frame= 5457 fps=132 q=32.0 size=    7758kB time=00:03:47.77 bitrate= 279.0kbits/s dup=1 drop=0 speed=5.51x    frame= 5523 fps=132 q=32.0 size=    7821kB time=00:03:50.50 bitrate= 278.0kbits/s dup=1 drop=0 speed=5.51x    frame= 5579 fps=132 q=32.0 size=    7909kB time=00:03:52.85 bitrate= 278.2kbits/s dup=1 drop=0 speed= 5.5x    frame= 5648 fps=132 q=32.0 size=    7999kB time=00:03:55.71 bitrate= 278.0kbits/s dup=1 drop=0 speed= 5.5x    frame= 5758 fps=133 q=32.0 size=    8110kB time=00:04:00.32 bitrate= 276.5kbits/s dup=1 drop=0 speed=5.55x    frame= 5837 fps=133 q=32.0 size=    8242kB time=00:04:03.60 bitrate= 277.2kbits/s dup=1 drop=0 speed=5.56x    frame= 5957 fps=134 q=32.0 size=    8356kB time=00:04:08.59 bitrate= 275.3kbits/s dup=1 drop=0 speed=5.61x    frame= 6072 fps=135 q=32.0 size=    8447kB time=00:04:13.41 bitrate= 273.0kbits/s dup=1 drop=0 speed=5.65x    frame= 6170 fps=136 q=32.0 size=    8554kB time=00:04:17.51 bitrate= 272.1kbits/s dup=1 drop=0 speed=5.68x    frame= 6280 fps=137 q=32.0 size=    8674kB time=00:04:22.08 bitrate= 271.1kbits/s dup=1 drop=0 speed=5.72x    frame= 6366 fps=137 q=32.0 size=    8840kB time=00:04:25.66 bitrate= 272.6kbits/s dup=1 drop=0 speed=5.73x    frame= 6444 fps=138 q=32.0 size=    8963kB time=00:04:28.90 bitrate= 273.1kbits/s dup=1 drop=0 speed=5.74x    frame= 6538 fps=138 q=32.0 size=    9094kB time=00:04:32.87 bitrate= 273.0kbits/s dup=1 drop=0 speed=5.76x    frame= 6678 fps=140 q=32.0 size=    9245kB time=00:04:38.67 bitrate= 271.8kbits/s dup=1 drop=0 speed=5.82x    frame= 6797 fps=141 q=32.0 size=    9332kB time=00:04:43.67 bitrate= 269.5kbits/s dup=1 drop=0 speed=5.86x    frame= 6857 fps=140 q=32.0 size=    9567kB time=00:04:46.14 bitrate= 273.9kbits/s dup=1 drop=0 speed=5.85x    frame= 6926 fps=140 q=32.0 size=    9718kB time=00:04:49.04 bitrate= 275.4kbits/s dup=1 drop=0 speed=5.85x    frame= 7012 fps=141 q=32.0 size=    9875kB time=00:04:52.58 bitrate= 276.5kbits/s dup=1 drop=0 speed=5.86x    frame= 7102 fps=141 q=32.0 size=   10036kB time=00:04:56.38 bitrate= 277.4kbits/s dup=1 drop=0 speed=5.88x    frame= 7181 fps=141 q=32.0 size=   10157kB time=00:04:59.67 bitrate= 277.7kbits/s dup=1 drop=0 speed=5.89x    frame= 7254 fps=141 q=32.0 size=   10293kB time=00:05:02.69 bitrate= 278.6kbits/s dup=1 drop=0 speed=5.89x    frame= 7334 fps=141 q=32.0 size=   10383kB time=00:05:06.02 bitrate= 278.0kbits/s dup=1 drop=0 speed=5.89x    frame= 7434 fps=142 q=32.0 size=   10498kB time=00:05:10.20 bitrate= 277.2kbits/s dup=1 drop=0 speed=5.92x    frame= 7559 fps=143 q=32.0 size=   10606kB time=00:05:15.45 bitrate= 275.4kbits/s dup=1 drop=0 speed=5.96x    frame= 7653 fps=143 q=32.0 size=   10705kB time=00:05:19.33 bitrate= 274.6kbits/s dup=1 drop=0 speed=5.98x    frame= 7735 fps=143 q=32.0 size=   10842kB time=00:05:22.75 bitrate= 275.2kbits/s dup=1 drop=0 speed=5.99x    frame= 7832 fps=144 q=32.0 size=   10970kB time=00:05:26.80 bitrate= 275.0kbits/s dup=1 drop=0 speed=   6x    frame= 7914 fps=144 q=32.0 size=   11091kB time=00:05:30.21 bitrate= 275.1kbits/s dup=1 drop=0 speed=6.01x    frame= 7968 fps=144 q=32.0 size=   11190kB time=00:05:32.48 bitrate= 275.7kbits/s dup=1 drop=0 speed=   6x    frame= 8027 fps=144 q=32.0 size=   11301kB time=00:05:34.95 bitrate= 276.4kbits/s dup=1 drop=0 speed=5.99x    frame= 8086 fps=143 q=32.0 size=   11414kB time=00:05:37.43 bitrate= 277.1kbits/s dup=1 drop=0 speed=5.98x    frame= 8159 fps=143 q=32.0 size=   11567kB time=00:05:40.45 bitrate= 278.3kbits/s dup=1 drop=0 speed=5.98x    frame= 8228 fps=143 q=32.0 size=   11705kB time=00:05:43.36 bitrate= 279.3kbits/s dup=1 drop=0 speed=5.98x    frame= 8325 fps=144 q=32.0 size=   11834kB time=00:05:47.37 bitrate= 279.1kbits/s dup=1 drop=0 speed=5.99x    frame= 8460 fps=145 q=32.0 size=   11954kB time=00:05:53.00 bitrate= 277.4kbits/s dup=1 drop=0 speed=6.04x    frame= 8724 fps=148 q=32.0 size=   12070kB time=00:06:04.01 bitrate= 271.6kbits/s dup=1 drop=0 speed=6.17x    frame= 8876 fps=149 q=32.0 size=   12190kB time=00:06:10.36 bitrate= 269.6kbits/s dup=1 drop=0 speed=6.23x    frame= 8958 fps=149 q=32.0 size=   12305kB time=00:06:13.78 bitrate= 269.7kbits/s dup=1 drop=0 speed=6.23x    frame= 9039 fps=149 q=32.0 size=   12413kB time=00:06:17.15 bitrate= 269.6kbits/s dup=1 drop=0 speed=6.24x    frame= 9137 fps=150 q=32.0 size=   12528kB time=00:06:21.24 bitrate= 269.2kbits/s dup=1 drop=0 speed=6.25x    frame= 9228 fps=150 q=32.0 size=   12671kB time=00:06:25.04 bitrate= 269.6kbits/s dup=1 drop=0 speed=6.26x    frame= 9295 fps=150 q=32.0 size=   12797kB time=00:06:27.81 bitrate= 270.3kbits/s dup=1 drop=0 speed=6.25x    frame= 9363 fps=150 q=32.0 size=   12943kB time=00:06:30.67 bitrate= 271.4kbits/s dup=1 drop=0 speed=6.25x    frame= 9420 fps=149 q=32.0 size=   13062kB time=00:06:33.06 bitrate= 272.2kbits/s dup=1 drop=0 speed=6.23x    frame= 9511 fps=150 q=32.0 size=   13140kB time=00:06:36.82 bitrate= 271.3kbits/s dup=1 drop=0 speed=6.24x    frame= 9602 fps=150 q=32.0 size=   13219kB time=00:06:40.61 bitrate= 270.3kbits/s dup=1 drop=0 speed=6.25x    frame= 9703 fps=150 q=32.0 size=   13286kB time=00:06:44.84 bitrate= 268.8kbits/s dup=1 drop=0 speed=6.27x    frame= 9795 fps=151 q=32.0 size=   13353kB time=00:06:48.68 bitrate= 267.7kbits/s dup=1 drop=0 speed=6.28x    frame= 9862 fps=150 q=32.0 size=   13429kB time=00:06:51.45 bitrate= 267.4kbits/s dup=1 drop=0 speed=6.28x    frame= 9917 fps=150 q=32.0 size=   13498kB time=00:06:53.80 bitrate= 267.2kbits/s dup=1 drop=0 speed=6.26x    frame= 9968 fps=150 q=32.0 size=   13574kB time=00:06:55.93 bitrate= 267.3kbits/s dup=1 drop=0 speed=6.25x    frame=10064 fps=150 q=32.0 size=   13651kB time=00:06:59.90 bitrate= 266.3kbits/s dup=1 drop=0 speed=6.26x    frame=10152 fps=150 q=32.0 size=   13724kB time=00:07:03.57 bitrate= 265.4kbits/s dup=1 drop=0 speed=6.27x    frame=10239 fps=150 q=32.0 size=   13785kB time=00:07:07.20 bitrate= 264.3kbits/s dup=1 drop=0 speed=6.27x    frame=10333 fps=151 q=32.0 size=   13859kB time=00:07:11.12 bitrate= 263.3kbits/s dup=1 drop=0 speed=6.29x    frame=10436 fps=151 q=32.0 size=   13931kB time=00:07:15.43 bitrate= 262.1kbits/s dup=1 drop=0 speed= 6.3x    frame=10531 fps=151 q=32.0 size=   13993kB time=00:07:19.40 bitrate= 260.9kbits/s dup=1 drop=0 speed=6.31x    frame=10576 fps=151 q=32.0 size=   14064kB time=00:07:21.28 bitrate= 261.1kbits/s dup=1 drop=0 speed=6.29x    frame=10606 fps=150 q=32.0 size=   14209kB time=00:07:22.51 bitrate= 263.0kbits/s dup=1 drop=0 speed=6.26x    frame=10638 fps=150 q=32.0 size=   14287kB time=00:07:23.84 bitrate= 263.7kbits/s dup=1 drop=0 speed=6.24x    frame=10722 fps=150 q=32.0 size=   14356kB time=00:07:27.33 bitrate= 262.9kbits/s dup=1 drop=0 speed=6.24x    frame=10786 fps=149 q=32.0 size=   14414kB time=00:07:30.02 bitrate= 262.4kbits/s dup=1 drop=0 speed=6.24x    frame=10833 fps=149 q=32.0 size=   14470kB time=00:07:31.99 bitrate= 262.3kbits/s dup=1 drop=0 speed=6.22x    frame=10883 fps=149 q=32.0 size=   14527kB time=00:07:34.08 bitrate= 262.1kbits/s dup=1 drop=0 speed= 6.2x    frame=10952 fps=149 q=32.0 size=   14605kB time=00:07:36.93 bitrate= 261.8kbits/s dup=1 drop=0 speed= 6.2x    frame=11046 fps=149 q=32.0 size=   14654kB time=00:07:40.86 bitrate= 260.5kbits/s dup=1 drop=0 speed=6.21x    frame=11133 fps=149 q=32.0 size=   14721kB time=00:07:44.49 bitrate= 259.6kbits/s dup=1 drop=0 speed=6.22x    frame=11222 fps=149 q=32.0 size=   14773kB time=00:07:48.20 bitrate= 258.5kbits/s dup=1 drop=0 speed=6.23x    frame=11285 fps=149 q=32.0 size=   14821kB time=00:07:50.80 bitrate= 257.9kbits/s dup=1 drop=0 speed=6.22x    frame=11334 fps=149 q=32.0 size=   14887kB time=00:07:52.85 bitrate= 257.9kbits/s dup=1 drop=0 speed= 6.2x    frame=11386 fps=148 q=32.0 size=   14967kB time=00:07:55.03 bitrate= 258.1kbits/s dup=1 drop=0 speed=6.19x    frame=11436 fps=148 q=32.0 size=   15030kB time=00:07:57.16 bitrate= 258.0kbits/s dup=1 drop=0 speed=6.18x    frame=11506 fps=148 q=32.0 size=   15081kB time=00:08:00.02 bitrate= 257.4kbits/s dup=1 drop=0 speed=6.18x    frame=11575 fps=148 q=32.0 size=   15150kB time=00:08:02.92 bitrate= 257.0kbits/s dup=1 drop=0 speed=6.17x    frame=11634 fps=148 q=32.0 size=   15229kB time=00:08:05.39 bitrate= 257.0kbits/s dup=1 drop=0 speed=6.16x    frame=11686 fps=147 q=32.0 size=   15282kB time=00:08:07.57 bitrate= 256.8kbits/s dup=1 drop=0 speed=6.15x    frame=11736 fps=147 q=32.0 size=   15337kB time=00:08:09.66 bitrate= 256.6kbits/s dup=1 drop=0 speed=6.14x    frame=11772 fps=147 q=32.0 size=   15412kB time=00:08:11.15 bitrate= 257.1kbits/s dup=1 drop=0 speed=6.12x    frame=11806 fps=146 q=32.0 size=   15480kB time=00:08:12.56 bitrate= 257.5kbits/s dup=1 drop=0 speed= 6.1x    frame=11842 fps=146 q=32.0 size=   15544kB time=00:08:14.05 bitrate= 257.7kbits/s dup=1 drop=0 speed=6.08x    frame=11882 fps=145 q=32.0 size=   15602kB time=00:08:15.72 bitrate= 257.8kbits/s dup=1 drop=0 speed=6.06x    frame=11965 fps=145 q=32.0 size=   15666kB time=00:08:19.17 bitrate= 257.1kbits/s dup=1 drop=0 speed=6.07x    frame=12058 fps=146 q=32.0 size=   15735kB time=00:08:23.06 bitrate= 256.2kbits/s dup=1 drop=0 speed=6.08x    frame=12126 fps=146 q=32.0 size=   15803kB time=00:08:25.92 bitrate= 255.9kbits/s dup=1 drop=0 speed=6.07x    frame=12227 fps=146 q=32.0 size=   15866kB time=00:08:30.10 bitrate= 254.8kbits/s dup=1 drop=0 speed=6.09x    frame=12327 fps=146 q=32.0 size=   15929kB time=00:08:34.28 bitrate= 253.7kbits/s dup=1 drop=0 speed= 6.1x    frame=12402 fps=146 q=32.0 size=   15980kB time=00:08:37.39 bitrate= 253.0kbits/s dup=1 drop=0 speed= 6.1x    frame=12441 fps=146 q=32.0 size=   16040kB time=00:08:39.06 bitrate= 253.1kbits/s dup=1 drop=0 speed=6.09x    frame=12520 fps=146 q=32.0 size=   16115kB time=00:08:42.34 bitrate= 252.7kbits/s dup=1 drop=0 speed=6.09x    frame=12612 fps=146 q=32.0 size=   16160kB time=00:08:46.18 bitrate= 251.6kbits/s dup=1 drop=0 speed= 6.1x    frame=12691 fps=146 q=32.0 size=   16213kB time=00:08:49.47 bitrate= 250.9kbits/s dup=1 drop=0 speed= 6.1x    frame=12770 fps=146 q=32.0 size=   16288kB time=00:08:52.75 bitrate= 250.5kbits/s dup=1 drop=0 speed= 6.1x    frame=12870 fps=147 q=32.0 size=   16337kB time=00:08:56.93 bitrate= 249.3kbits/s dup=1 drop=0 speed=6.12x    frame=12944 fps=147 q=32.0 size=   16404kB time=00:09:00.01 bitrate= 248.8kbits/s dup=1 drop=0 speed=6.11x    frame=13006 fps=146 q=32.0 size=   16458kB time=00:09:02.61 bitrate= 248.5kbits/s dup=1 drop=0 speed=6.11x    frame=13051 fps=146 q=32.0 size=   16508kB time=00:09:04.49 bitrate= 248.4kbits/s dup=1 drop=0 speed= 6.1x    frame=13102 fps=146 q=32.0 size=   16558kB time=00:09:06.66 bitrate= 248.1kbits/s dup=1 drop=0 speed=6.09x    frame=13159 fps=146 q=32.0 size=   16609kB time=00:09:09.01 bitrate= 247.8kbits/s dup=1 drop=0 speed=6.08x    frame=13239 fps=146 q=32.0 size=   16683kB time=00:09:12.34 bitrate= 247.4kbits/s dup=1 drop=0 speed=6.08x    frame=13323 fps=146 q=32.0 size=   16780kB time=00:09:15.88 bitrate= 247.3kbits/s dup=1 drop=0 speed=6.09x    frame=13446 fps=146 q=32.0 size=   16903kB time=00:09:20.96 bitrate= 246.8kbits/s dup=1 drop=0 speed=6.11x    frame=13540 fps=147 q=32.0 size=   17001kB time=00:09:24.88 bitrate= 246.5kbits/s dup=1 drop=0 speed=6.12x    frame=13717 fps=148 q=32.0 size=   17155kB time=00:09:32.26 bitrate= 245.6kbits/s dup=1 drop=0 speed=6.16x    frame=13855 fps=148 q=32.0 size=   17284kB time=00:09:38.02 bitrate= 245.0kbits/s dup=1 drop=0 speed=6.19x    frame=13996 fps=149 q=32.0 size=   17428kB time=00:09:43.91 bitrate= 244.5kbits/s dup=1 drop=0 speed=6.22x    frame=14120 fps=150 q=32.0 size=   17569kB time=00:09:49.07 bitrate= 244.3kbits/s dup=1 drop=0 speed=6.24x    frame=14268 fps=150 q=32.0 size=   17691kB time=00:09:55.26 bitrate= 243.5kbits/s dup=1 drop=0 speed=6.27x    frame=14405 fps=151 q=32.0 size=   17832kB time=00:10:00.93 bitrate= 243.1kbits/s dup=1 drop=0 speed= 6.3x    frame=14566 fps=152 q=32.0 size=   17977kB time=00:10:07.68 bitrate= 242.3kbits/s dup=1 drop=0 speed=6.34x    frame=14704 fps=153 q=32.0 size=   18080kB time=00:10:13.39 bitrate= 241.5kbits/s dup=1 drop=0 speed=6.36x    frame=14782 fps=153 q=32.0 size=   18224kB time=00:10:16.68 bitrate= 242.1kbits/s dup=1 drop=0 speed=6.36x    frame=14903 fps=153 q=32.0 size=   18344kB time=00:10:21.71 bitrate= 241.7kbits/s dup=1 drop=0 speed=6.38x    frame=14964 fps=153 q=32.0 size=   18466kB time=00:10:24.27 bitrate= 242.3kbits/s dup=1 drop=0 speed=6.38x    frame=15047 fps=153 q=32.0 size=   18606kB time=00:10:27.73 bitrate= 242.8kbits/s dup=1 drop=0 speed=6.38x    frame=15169 fps=153 q=32.0 size=   18727kB time=00:10:32.81 bitrate= 242.4kbits/s dup=1 drop=0 speed= 6.4x    frame=15303 fps=154 q=32.0 size=   18837kB time=00:10:38.40 bitrate= 241.7kbits/s dup=1 drop=0 speed=6.42x    frame=15443 fps=155 q=32.0 size=   18944kB time=00:10:44.24 bitrate= 240.9kbits/s dup=1 drop=0 speed=6.45x    frame=15513 fps=154 q=32.0 size=   19043kB time=00:10:47.19 bitrate= 241.0kbits/s dup=1 drop=0 speed=6.45x    frame=15597 fps=155 q=32.0 size=   19166kB time=00:10:50.68 bitrate= 241.3kbits/s dup=1 drop=0 speed=6.45x    frame=15679 fps=155 q=32.0 size=   19318kB time=00:10:54.10 bitrate= 241.9kbits/s dup=1 drop=0 speed=6.45x    frame=15776 fps=155 q=32.0 size=   19446kB time=00:10:58.15 bitrate= 242.0kbits/s dup=1 drop=0 speed=6.46x    frame=15873 fps=155 q=32.0 size=   19557kB time=00:11:02.20 bitrate= 241.9kbits/s dup=1 drop=0 speed=6.47x    frame=15978 fps=155 q=32.0 size=   19654kB time=00:11:06.56 bitrate= 241.5kbits/s dup=1 drop=0 speed=6.48x    frame=16074 fps=155 q=32.0 size=   19765kB time=00:11:10.57 bitrate= 241.5kbits/s dup=1 drop=0 speed=6.48x    frame=16183 fps=156 q=32.0 size=   19868kB time=00:11:15.09 bitrate= 241.1kbits/s dup=1 drop=0 speed= 6.5x    frame=16279 fps=156 q=32.0 size=   19978kB time=00:11:19.14 bitrate= 241.0kbits/s dup=1 drop=0 speed= 6.5x    frame=16384 fps=156 q=32.0 size=   20102kB time=00:11:23.49 bitrate= 240.9kbits/s dup=1 drop=0 speed=6.51x    frame=16499 fps=156 q=32.0 size=   20221kB time=00:11:28.27 bitrate= 240.7kbits/s dup=1 drop=0 speed=6.53x    frame=16588 fps=157 q=32.0 size=   20339kB time=00:11:32.03 bitrate= 240.8kbits/s dup=1 drop=0 speed=6.53x    frame=16686 fps=157 q=32.0 size=   20424kB time=00:11:36.08 bitrate= 240.4kbits/s dup=1 drop=0 speed=6.54x    frame=16772 fps=157 q=32.0 size=   20546kB time=00:11:39.71 bitrate= 240.6kbits/s dup=1 drop=0 speed=6.54x    frame=16901 fps=157 q=32.0 size=   20653kB time=00:11:45.08 bitrate= 240.0kbits/s dup=1 drop=0 speed=6.56x    frame=17030 fps=158 q=32.0 size=   20782kB time=00:11:50.46 bitrate= 239.6kbits/s dup=1 drop=0 speed=6.58x    frame=17117 fps=158 q=32.0 size=   20898kB time=00:11:54.09 bitrate= 239.7kbits/s dup=1 drop=0 speed=6.58x    frame=17211 fps=158 q=32.0 size=   21037kB time=00:11:58.01 bitrate= 240.0kbits/s dup=1 drop=0 speed=6.59x    frame=17302 fps=158 q=32.0 size=   21193kB time=00:12:01.77 bitrate= 240.5kbits/s dup=1 drop=0 speed=6.59x    frame=17401 fps=158 q=32.0 size=   21284kB time=00:12:05.91 bitrate= 240.2kbits/s dup=1 drop=0 speed= 6.6x    frame=17480 fps=158 q=32.0 size=   21404kB time=00:12:09.19 bitrate= 240.5kbits/s dup=1 drop=0 speed= 6.6x    frame=17564 fps=158 q=32.0 size=   21493kB time=00:12:12.73 bitrate= 240.3kbits/s dup=1 drop=0 speed= 6.6x    frame=17643 fps=158 q=32.0 size=   21554kB time=00:12:16.02 bitrate= 239.9kbits/s dup=1 drop=0 speed= 6.6x    frame=17747 fps=158 q=32.0 size=   21650kB time=00:12:20.33 bitrate= 239.6kbits/s dup=1 drop=0 speed=6.61x    frame=17868 fps=159 q=32.0 size=   21714kB time=00:12:25.40 bitrate= 238.6kbits/s dup=1 drop=0 speed=6.62x    frame=17966 fps=159 q=32.0 size=   21799kB time=00:12:29.50 bitrate= 238.3kbits/s dup=1 drop=0 speed=6.63x    frame=18047 fps=159 q=32.0 size=   21886kB time=00:12:32.87 bitrate= 238.1kbits/s dup=1 drop=0 speed=6.63x    frame=18101 fps=159 q=32.0 size=   21968kB time=00:12:35.09 bitrate= 238.3kbits/s dup=1 drop=0 speed=6.62x    frame=18165 fps=159 q=32.0 size=   22041kB time=00:12:37.78 bitrate= 238.3kbits/s dup=1 drop=0 speed=6.62x    frame=18232 fps=158 q=32.0 size=   22122kB time=00:12:40.59 bitrate= 238.3kbits/s dup=1 drop=0 speed=6.61x    frame=18304 fps=158 q=32.0 size=   22223kB time=00:12:43.62 bitrate= 238.4kbits/s dup=1 drop=0 speed=6.61x    frame=18373 fps=158 q=32.0 size=   22288kB time=00:12:46.44 bitrate= 238.2kbits/s dup=1 drop=0 speed=6.61x    frame=18414 fps=158 q=32.0 size=   22379kB time=00:12:48.15 bitrate= 238.7kbits/s dup=1 drop=0 speed=6.59x    frame=18483 fps=158 q=32.0 size=   22476kB time=00:12:51.05 bitrate= 238.8kbits/s dup=1 drop=0 speed=6.59x    frame=18559 fps=158 q=29.0 size=   22522kB time=00:12:54.20 bitrate= 238.3kbits/s dup=1 drop=0 speed=6.59x    frame=18618 fps=158 q=32.0 size=   22601kB time=00:12:56.68 bitrate= 238.4kbits/s dup=1 drop=0 speed=6.58x    frame=18678 fps=158 q=32.0 size=   22655kB time=00:12:59.20 bitrate= 238.2kbits/s dup=1 drop=0 speed=6.57x    frame=18730 fps=157 q=32.0 size=   22719kB time=00:13:01.37 bitrate= 238.2kbits/s dup=1 drop=0 speed=6.56x    frame=18769 fps=157 q=32.0 size=   22810kB time=00:13:02.95 bitrate= 238.7kbits/s dup=1 drop=0 speed=6.55x    frame=18828 fps=157 q=32.0 size=   22857kB time=00:13:05.43 bitrate= 238.4kbits/s dup=1 drop=0 speed=6.54x    frame=18883 fps=157 q=32.0 size=   22927kB time=00:13:07.73 bitrate= 238.4kbits/s dup=1 drop=0 speed=6.53x    frame=18929 fps=156 q=32.0 size=   22993kB time=00:13:09.65 bitrate= 238.5kbits/s dup=1 drop=0 speed=6.52x    frame=18971 fps=156 q=32.0 size=   23042kB time=00:13:11.40 bitrate= 238.5kbits/s dup=1 drop=0 speed=6.51x    frame=19014 fps=156 q=32.0 size=   23091kB time=00:13:13.19 bitrate= 238.5kbits/s dup=1 drop=0 speed=6.49x    frame=19056 fps=155 q=32.0 size=   23146kB time=00:13:14.94 bitrate= 238.5kbits/s dup=1 drop=0 speed=6.48x    frame=19121 fps=155 q=32.0 size=   23207kB time=00:13:17.67 bitrate= 238.3kbits/s dup=1 drop=0 speed=6.48x    frame=19182 fps=155 q=32.0 size=   23301kB time=00:13:20.19 bitrate= 238.5kbits/s dup=1 drop=0 speed=6.47x    frame=19238 fps=155 q=32.0 size=   23378kB time=00:13:22.53 bitrate= 238.6kbits/s dup=1 drop=0 speed=6.46x    frame=19290 fps=155 q=32.0 size=   23470kB time=00:13:24.71 bitrate= 238.9kbits/s dup=1 drop=0 speed=6.45x    frame=19377 fps=155 q=32.0 size=   23526kB time=00:13:28.34 bitrate= 238.4kbits/s dup=1 drop=0 speed=6.46x    frame=19455 fps=155 q=32.0 size=   23585kB time=00:13:31.58 bitrate= 238.1kbits/s dup=1 drop=0 speed=6.46x    frame=19501 fps=155 q=32.0 size=   23645kB time=00:13:33.50 bitrate= 238.1kbits/s dup=1 drop=0 speed=6.45x    frame=19581 fps=155 q=32.0 size=   23697kB time=00:13:36.83 bitrate= 237.7kbits/s dup=1 drop=0 speed=6.45x    frame=19641 fps=154 q=32.0 size=   23766kB time=00:13:39.35 bitrate= 237.6kbits/s dup=1 drop=0 speed=6.44x    frame=19686 fps=154 q=32.0 size=   23845kB time=00:13:41.22 bitrate= 237.9kbits/s dup=1 drop=0 speed=6.43x    frame=19723 fps=154 q=32.0 size=   23903kB time=00:13:42.76 bitrate= 238.0kbits/s dup=1 drop=0 speed=6.41x    frame=19764 fps=153 q=32.0 size=   23979kB time=00:13:44.47 bitrate= 238.3kbits/s dup=1 drop=0 speed= 6.4x    frame=19811 fps=153 q=32.0 size=   24051kB time=00:13:46.43 bitrate= 238.4kbits/s dup=1 drop=0 speed=6.39x    frame=19871 fps=153 q=32.0 size=   24142kB time=00:13:48.95 bitrate= 238.6kbits/s dup=1 drop=0 speed=6.39x    frame=19946 fps=153 q=32.0 size=   24197kB time=00:13:52.06 bitrate= 238.2kbits/s dup=1 drop=0 speed=6.39x    frame=20015 fps=153 q=32.0 size=   24281kB time=00:13:54.96 bitrate= 238.2kbits/s dup=1 drop=0 speed=6.38x    frame=20063 fps=153 q=32.0 size=   24363kB time=00:13:56.97 bitrate= 238.5kbits/s dup=1 drop=0 speed=6.37x    frame=20139 fps=153 q=32.0 size=   24451kB time=00:14:00.12 bitrate= 238.4kbits/s dup=1 drop=0 speed=6.37x    frame=20209 fps=153 q=32.0 size=   24509kB time=00:14:03.03 bitrate= 238.2kbits/s dup=1 drop=0 speed=6.37x    frame=20321 fps=153 q=32.0 size=   24588kB time=00:14:07.72 bitrate= 237.6kbits/s dup=1 drop=0 speed=6.38x    frame=20421 fps=153 q=32.0 size=   24674kB time=00:14:11.86 bitrate= 237.3kbits/s dup=1 drop=0 speed=6.39x    frame=20513 fps=153 q=32.0 size=   24774kB time=00:14:15.70 bitrate= 237.2kbits/s dup=1 drop=0 speed=6.39x    frame=20609 fps=153 q=32.0 size=   24834kB time=00:14:19.71 bitrate= 236.6kbits/s dup=1 drop=0 speed= 6.4x    frame=20681 fps=153 q=32.0 size=   24909kB time=00:14:22.74 bitrate= 236.5kbits/s dup=1 drop=0 speed= 6.4x    frame=20768 fps=153 q=32.0 size=   24988kB time=00:14:26.36 bitrate= 236.3kbits/s dup=1 drop=0 speed= 6.4x    frame=20835 fps=153 q=32.0 size=   25060kB time=00:14:29.14 bitrate= 236.2kbits/s dup=1 drop=0 speed= 6.4x    frame=20907 fps=153 q=32.0 size=   25130kB time=00:14:32.17 bitrate= 236.0kbits/s dup=1 drop=0 speed=6.39x    frame=20990 fps=153 q=32.0 size=   25207kB time=00:14:35.62 bitrate= 235.8kbits/s dup=1 drop=0 speed= 6.4x    frame=21067 fps=153 q=32.0 size=   25289kB time=00:14:38.82 bitrate= 235.7kbits/s dup=1 drop=0 speed= 6.4x    frame=21164 fps=153 q=32.0 size=   25383kB time=00:14:42.88 bitrate= 235.5kbits/s dup=1 drop=0 speed= 6.4x    frame=21246 fps=153 q=32.0 size=   25450kB time=00:14:46.29 bitrate= 235.2kbits/s dup=1 drop=0 speed= 6.4x    frame=21316 fps=153 q=32.0 size=   25544kB time=00:14:49.23 bitrate= 235.3kbits/s dup=1 drop=0 speed= 6.4x    frame=21410 fps=154 q=32.0 size=   25618kB time=00:14:53.12 bitrate= 235.0kbits/s dup=1 drop=0 speed= 6.4x    frame=21473 fps=153 q=32.0 size=   25701kB time=00:14:55.76 bitrate= 235.0kbits/s dup=1 drop=0 speed= 6.4x    frame=21548 fps=153 q=32.0 size=   25780kB time=00:14:58.88 bitrate= 234.9kbits/s dup=1 drop=0 speed= 6.4x    frame=21622 fps=153 q=32.0 size=   25866kB time=00:15:01.95 bitrate= 234.9kbits/s dup=1 drop=0 speed= 6.4x    frame=21688 fps=153 q=32.0 size=   25951kB time=00:15:04.72 bitrate= 235.0kbits/s dup=1 drop=0 speed=6.39x    frame=21743 fps=153 q=32.0 size=   26042kB time=00:15:07.03 bitrate= 235.2kbits/s dup=1 drop=0 speed=6.39x    frame=21802 fps=153 q=32.0 size=   26140kB time=00:15:09.46 bitrate= 235.5kbits/s dup=1 drop=0 speed=6.38x    frame=21886 fps=153 q=32.0 size=   26205kB time=00:15:12.96 bitrate= 235.1kbits/s dup=1 drop=0 speed=6.38x    frame=21937 fps=153 q=32.0 size=   26304kB time=00:15:15.13 bitrate= 235.5kbits/s dup=1 drop=0 speed=6.37x    frame=22017 fps=153 q=32.0 size=   26419kB time=00:15:18.46 bitrate= 235.6kbits/s dup=1 drop=0 speed=6.38x    frame=22061 fps=153 q=32.0 size=   26500kB time=00:15:20.29 bitrate= 235.9kbits/s dup=1 drop=0 speed=6.37x    frame=22139 fps=153 q=32.0 size=   26594kB time=00:15:23.54 bitrate= 235.9kbits/s dup=1 drop=0 speed=6.37x    frame=22219 fps=153 q=32.0 size=   26686kB time=00:15:26.87 bitrate= 235.9kbits/s dup=1 drop=0 speed=6.36x    frame=22288 fps=153 q=32.0 size=   26769kB time=00:15:29.77 bitrate= 235.9kbits/s dup=1 drop=0 speed=6.36x    frame=22372 fps=153 q=32.0 size=   26875kB time=00:15:33.27 bitrate= 235.9kbits/s dup=1 drop=0 speed=6.36x    frame=22467 fps=153 q=32.0 size=   26978kB time=00:15:37.23 bitrate= 235.8kbits/s dup=1 drop=0 speed=6.37x    frame=22554 fps=153 q=32.0 size=   27102kB time=00:15:40.86 bitrate= 236.0kbits/s dup=1 drop=0 speed=6.37x    frame=22638 fps=153 q=32.0 size=   27203kB time=00:15:44.36 bitrate= 236.0kbits/s dup=1 drop=0 speed=6.37x    frame=22713 fps=153 q=32.0 size=   27325kB time=00:15:47.47 bitrate= 236.3kbits/s dup=1 drop=0 speed=6.37x    frame=22792 fps=153 q=32.0 size=   27412kB time=00:15:50.76 bitrate= 236.2kbits/s dup=1 drop=0 speed=6.37x    frame=22894 fps=153 q=32.0 size=   27521kB time=00:15:55.03 bitrate= 236.1kbits/s dup=1 drop=0 speed=6.38x    frame=22999 fps=153 q=32.0 size=   27599kB time=00:15:59.38 bitrate= 235.7kbits/s dup=1 drop=0 speed=6.39x    frame=23093 fps=153 q=32.0 size=   27699kB time=00:16:03.35 bitrate= 235.5kbits/s dup=1 drop=0 speed=6.39x    frame=23156 fps=153 q=32.0 size=   27826kB time=00:16:05.99 bitrate= 236.0kbits/s dup=1 drop=0 speed=6.39x    frame=23250 fps=153 q=32.0 size=   27912kB time=00:16:09.87 bitrate= 235.8kbits/s dup=1 drop=0 speed=6.39x    frame=23352 fps=153 q=32.0 size=   28007kB time=00:16:14.14 bitrate= 235.5kbits/s dup=1 drop=0 speed= 6.4x    frame=23448 fps=154 q=32.0 size=   28100kB time=00:16:18.15 bitrate= 235.3kbits/s dup=1 drop=0 speed=6.41x    frame=23530 fps=154 q=32.0 size=   28193kB time=00:16:21.56 bitrate= 235.3kbits/s dup=1 drop=0 speed=6.41x    frame=23620 fps=154 q=32.0 size=   28283kB time=00:16:25.32 bitrate= 235.1kbits/s dup=1 drop=0 speed=6.41x    frame=23713 fps=154 q=32.0 size=   28356kB time=00:16:29.16 bitrate= 234.8kbits/s dup=1 drop=0 speed=6.41x    frame=23803 fps=154 q=32.0 size=   28452kB time=00:16:32.96 bitrate= 234.7kbits/s dup=1 drop=0 speed=6.42x    frame=23866 fps=154 q=32.0 size=   28553kB time=00:16:35.56 bitrate= 235.0kbits/s dup=1 drop=0 speed=6.41x    frame=23960 fps=154 q=32.0 size=   28649kB time=00:16:39.48 bitrate= 234.8kbits/s dup=1 drop=0 speed=6.42x    frame=24041 fps=154 q=32.0 size=   28721kB time=00:16:42.85 bitrate= 234.6kbits/s dup=1 drop=0 speed=6.42x    frame=24112 fps=154 q=32.0 size=   28804kB time=00:16:45.84 bitrate= 234.6kbits/s dup=1 drop=0 speed=6.42x    frame=24198 fps=154 q=32.0 size=   28882kB time=00:16:49.43 bitrate= 234.4kbits/s dup=1 drop=0 speed=6.42x    frame=24289 fps=154 q=32.0 size=   28943kB time=00:16:53.22 bitrate= 234.0kbits/s dup=1 drop=0 speed=6.42x    frame=24369 fps=154 q=32.0 size=   29025kB time=00:16:56.55 bitrate= 233.9kbits/s dup=1 drop=0 speed=6.42x    frame=24430 fps=154 q=32.0 size=   29109kB time=00:16:59.07 bitrate= 234.0kbits/s dup=1 drop=0 speed=6.42x    frame=24480 fps=154 q=32.0 size=   29183kB time=00:17:01.16 bitrate= 234.1kbits/s dup=1 drop=0 speed=6.41x    frame=24533 fps=154 q=32.0 size=   29282kB time=00:17:03.38 bitrate= 234.4kbits/s dup=1 drop=0 speed= 6.4x    frame=24598 fps=153 q=32.0 size=   29377kB time=00:17:06.11 bitrate= 234.5kbits/s dup=1 drop=0 speed= 6.4x    frame=24655 fps=153 q=32.0 size=   29486kB time=00:17:08.45 bitrate= 234.9kbits/s dup=1 drop=0 speed= 6.4x    frame=24711 fps=153 q=32.0 size=   29571kB time=00:17:10.80 bitrate= 235.0kbits/s dup=1 drop=0 speed=6.39x    frame=24780 fps=153 q=32.0 size=   29689kB time=00:17:13.70 bitrate= 235.3kbits/s dup=1 drop=0 speed=6.39x    frame=24850 fps=153 q=32.0 size=   29804kB time=00:17:16.60 bitrate= 235.5kbits/s dup=1 drop=0 speed=6.38x    frame=24931 fps=153 q=32.0 size=   29904kB time=00:17:19.97 bitrate= 235.6kbits/s dup=1 drop=0 speed=6.39x    frame=25040 fps=153 q=32.0 size=   30013kB time=00:17:24.54 bitrate= 235.4kbits/s dup=1 drop=0 speed=6.39x    frame=25126 fps=153 q=32.0 size=   30088kB time=00:17:28.12 bitrate= 235.2kbits/s dup=1 drop=0 speed= 6.4x    frame=25188 fps=153 q=32.0 size=   30238kB time=00:17:30.73 bitrate= 235.8kbits/s dup=1 drop=0 speed=6.39x    frame=25280 fps=153 q=32.0 size=   30327kB time=00:17:34.52 bitrate= 235.6kbits/s dup=1 drop=0 speed= 6.4x    frame=25361 fps=153 q=32.0 size=   30422kB time=00:17:37.89 bitrate= 235.6kbits/s dup=1 drop=0 speed= 6.4x    frame=25423 fps=153 q=32.0 size=   30535kB time=00:17:40.50 bitrate= 235.9kbits/s dup=1 drop=0 speed=6.39x    frame=25497 fps=153 q=32.0 size=   30620kB time=00:17:43.61 bitrate= 235.8kbits/s dup=1 drop=0 speed=6.39x    frame=25557 fps=153 q=32.0 size=   30692kB time=00:17:46.09 bitrate= 235.8kbits/s dup=1 drop=0 speed=6.39x    frame=25613 fps=153 q=32.0 size=   30758kB time=00:17:48.43 bitrate= 235.8kbits/s dup=1 drop=0 speed=6.38x    frame=25667 fps=153 q=32.0 size=   30819kB time=00:17:50.69 bitrate= 235.8kbits/s dup=1 drop=0 speed=6.38x    frame=25720 fps=153 q=32.0 size=   30901kB time=00:17:52.87 bitrate= 235.9kbits/s dup=1 drop=0 speed=6.37x    frame=25785 fps=153 q=32.0 size=   30984kB time=00:17:55.60 bitrate= 236.0kbits/s dup=1 drop=0 speed=6.37x    frame=25863 fps=153 q=32.0 size=   31081kB time=00:17:58.89 bitrate= 236.0kbits/s dup=1 drop=0 speed=6.37x    frame=25935 fps=153 q=32.0 size=   31154kB time=00:18:01.87 bitrate= 235.9kbits/s dup=1 drop=0 speed=6.37x    frame=25995 fps=152 q=32.0 size=   31230kB time=00:18:04.35 bitrate= 235.9kbits/s dup=1 drop=0 speed=6.36x    frame=26066 fps=152 q=32.0 size=   31310kB time=00:18:07.33 bitrate= 235.9kbits/s dup=1 drop=0 speed=6.36x    frame=26132 fps=152 q=32.0 size=   31363kB time=00:18:10.07 bitrate= 235.7kbits/s dup=1 drop=0 speed=6.36x    frame=26195 fps=152 q=32.0 size=   31422kB time=00:18:12.71 bitrate= 235.6kbits/s dup=1 drop=0 speed=6.35x    frame=26240 fps=152 q=32.0 size=   31486kB time=00:18:14.59 bitrate= 235.6kbits/s dup=1 drop=0 speed=6.35x    frame=26286 fps=152 q=32.0 size=   31546kB time=00:18:16.51 bitrate= 235.7kbits/s dup=1 drop=0 speed=6.34x    frame=26333 fps=152 q=32.0 size=   31602kB time=00:18:18.43 bitrate= 235.7kbits/s dup=1 drop=0 speed=6.33x    frame=26372 fps=152 q=32.0 size=   31701kB time=00:18:20.09 bitrate= 236.1kbits/s dup=1 drop=0 speed=6.32x    frame=26410 fps=151 q=32.0 size=   31815kB time=00:18:21.67 bitrate= 236.6kbits/s dup=1 drop=0 speed=6.31x    frame=26480 fps=151 q=32.0 size=   31899kB time=00:18:24.61 bitrate= 236.6kbits/s dup=1 drop=0 speed=6.31x    frame=26564 fps=151 q=32.0 size=   31987kB time=00:18:28.11 bitrate= 236.5kbits/s dup=1 drop=0 speed=6.31x    frame=26644 fps=151 q=32.0 size=   32080kB time=00:18:31.44 bitrate= 236.4kbits/s dup=1 drop=0 speed=6.31x    frame=26719 fps=151 q=32.0 size=   32165kB time=00:18:34.60 bitrate= 236.4kbits/s dup=1 drop=0 speed=6.31x    frame=26780 fps=151 q=32.0 size=   32245kB time=00:18:37.12 bitrate= 236.5kbits/s dup=1 drop=0 speed=6.31x    frame=26863 fps=151 q=32.0 size=   32342kB time=00:18:40.57 bitrate= 236.4kbits/s dup=1 drop=0 speed=6.31x    frame=26932 fps=151 q=32.0 size=   32429kB time=00:18:43.43 bitrate= 236.5kbits/s dup=1 drop=0 speed=6.31x    frame=26977 fps=151 q=32.0 size=   32533kB time=00:18:45.35 bitrate= 236.8kbits/s dup=1 drop=0 speed= 6.3x    frame=27048 fps=151 q=32.0 size=   32670kB time=00:18:48.29 bitrate= 237.2kbits/s dup=1 drop=0 speed= 6.3x    frame=27137 fps=151 q=32.0 size=   32755kB time=00:18:52.01 bitrate= 237.0kbits/s dup=1 drop=0 speed= 6.3x    frame=27207 fps=151 q=32.0 size=   32861kB time=00:18:54.91 bitrate= 237.2kbits/s dup=1 drop=0 speed= 6.3x    frame=27302 fps=151 q=32.0 size=   32990kB time=00:18:58.88 bitrate= 237.3kbits/s dup=1 drop=0 speed= 6.3x    frame=27405 fps=151 q=32.0 size=   33092kB time=00:19:03.14 bitrate= 237.1kbits/s dup=1 drop=0 speed=6.31x    frame=27472 fps=151 q=32.0 size=   33150kB time=00:19:05.96 bitrate= 237.0kbits/s dup=1 drop=0 speed=6.31x    frame=27577 fps=151 q=32.0 size=   33249kB time=00:19:10.31 bitrate= 236.8kbits/s dup=1 drop=0 speed=6.31x    frame=27682 fps=152 q=29.0 size=   33303kB time=00:19:14.75 bitrate= 236.3kbits/s dup=1 drop=0 speed=6.32x    frame=27764 fps=152 q=32.0 size=   33401kB time=00:19:18.12 bitrate= 236.3kbits/s dup=1 drop=0 speed=6.32x    frame=27861 fps=152 q=32.0 size=   33461kB time=00:19:22.21 bitrate= 235.9kbits/s dup=1 drop=0 speed=6.33x    frame=27955 fps=152 q=32.0 size=   33548kB time=00:19:26.10 bitrate= 235.7kbits/s dup=1 drop=0 speed=6.33x    frame=28031 fps=152 q=32.0 size=   33624kB time=00:19:29.25 bitrate= 235.6kbits/s dup=1 drop=0 speed=6.33x    frame=28142 fps=152 q=32.0 size=   33697kB time=00:19:33.91 bitrate= 235.1kbits/s dup=1 drop=0 speed=6.34x    frame=28231 fps=152 q=32.0 size=   33801kB time=00:19:37.62 bitrate= 235.1kbits/s dup=1 drop=0 speed=6.34x    frame=28309 fps=152 q=32.0 size=   33899kB time=00:19:40.86 bitrate= 235.2kbits/s dup=1 drop=0 speed=6.34x    frame=28398 fps=152 q=32.0 size=   34007kB time=00:19:44.57 bitrate= 235.2kbits/s dup=1 drop=0 speed=6.34x    frame=28460 fps=152 q=32.0 size=   34075kB time=00:19:47.22 bitrate= 235.1kbits/s dup=1 drop=0 speed=6.34x    frame=28543 fps=152 q=32.0 size=   34157kB time=00:19:50.63 bitrate= 235.0kbits/s dup=1 drop=0 speed=6.34x    frame=28625 fps=152 q=32.0 size=   34202kB time=00:19:54.09 bitrate= 234.6kbits/s dup=1 drop=0 speed=6.34x    frame=28692 fps=152 q=32.0 size=   34290kB time=00:19:56.86 bitrate= 234.7kbits/s dup=1 drop=0 speed=6.34x    frame=28746 fps=152 q=32.0 size=   34373kB time=00:19:59.12 bitrate= 234.8kbits/s dup=1 drop=0 speed=6.34x    frame=28832 fps=152 q=32.0 size=   34425kB time=00:20:02.66 bitrate= 234.5kbits/s dup=1 drop=0 speed=6.34x    frame=28906 fps=152 q=32.0 size=   34513kB time=00:20:05.78 bitrate= 234.5kbits/s dup=1 drop=0 speed=6.34x    frame=28975 fps=152 q=32.0 size=   34566kB time=00:20:08.68 bitrate= 234.3kbits/s dup=1 drop=0 speed=6.34x    frame=29053 fps=152 q=32.0 size=   34646kB time=00:20:11.88 bitrate= 234.2kbits/s dup=1 drop=0 speed=6.34x    frame=29145 fps=152 q=32.0 size=   34733kB time=00:20:15.72 bitrate= 234.0kbits/s dup=1 drop=0 speed=6.34x    frame=29266 fps=152 q=32.0 size=   34796kB time=00:20:20.80 bitrate= 233.5kbits/s dup=1 drop=0 speed=6.35x    frame=29367 fps=152 q=32.0 size=   34873kB time=00:20:24.98 bitrate= 233.2kbits/s dup=1 drop=0 speed=6.36x    frame=29429 fps=152 q=32.0 size=   34976kB time=00:20:27.58 bitrate= 233.4kbits/s dup=1 drop=0 speed=6.35x    frame=29512 fps=152 q=32.0 size=   35052kB time=00:20:31.04 bitrate= 233.3kbits/s dup=1 drop=0 speed=6.35x    frame=29576 fps=152 q=32.0 size=   35153kB time=00:20:33.72 bitrate= 233.4kbits/s dup=1 drop=0 speed=6.35x    frame=29661 fps=152 q=32.0 size=   35233kB time=00:20:37.27 bitrate= 233.3kbits/s dup=1 drop=0 speed=6.35x    frame=29768 fps=152 q=32.0 size=   35322kB time=00:20:41.75 bitrate= 233.0kbits/s dup=1 drop=0 speed=6.36x    frame=29862 fps=153 q=32.0 size=   35397kB time=00:20:45.63 bitrate= 232.8kbits/s dup=1 drop=0 speed=6.36x    frame=29930 fps=152 q=32.0 size=   35516kB time=00:20:48.49 bitrate= 233.0kbits/s dup=1 drop=0 speed=6.36x    frame=30023 fps=153 q=32.0 size=   35594kB time=00:20:52.37 bitrate= 232.8kbits/s dup=1 drop=0 speed=6.36x    frame=30113 fps=153 q=32.0 size=   35708kB time=00:20:56.12 bitrate= 232.9kbits/s dup=1 drop=0 speed=6.37x    frame=30187 fps=153 q=32.0 size=   35788kB time=00:20:59.20 bitrate= 232.8kbits/s dup=1 drop=0 speed=6.37x    frame=30288 fps=153 q=32.0 size=   35856kB time=00:21:03.42 bitrate= 232.5kbits/s dup=1 drop=0 speed=6.37x    frame=30375 fps=153 q=32.0 size=   35954kB time=00:21:07.05 bitrate= 232.5kbits/s dup=1 drop=0 speed=6.37x    frame=30443 fps=153 q=32.0 size=   36050kB time=00:21:09.86 bitrate= 232.6kbits/s dup=1 drop=0 speed=6.37x    frame=30503 fps=153 q=32.0 size=   36141kB time=00:21:12.42 bitrate= 232.7kbits/s dup=1 drop=0 speed=6.37x    frame=30583 fps=153 q=32.0 size=   36238kB time=00:21:15.71 bitrate= 232.7kbits/s dup=1 drop=0 speed=6.37x    frame=30688 fps=153 q=32.0 size=   36293kB time=00:21:20.10 bitrate= 232.3kbits/s dup=1 drop=0 speed=6.37x    frame=30749 fps=153 q=32.0 size=   36374kB time=00:21:22.66 bitrate= 232.3kbits/s dup=1 drop=0 speed=6.37x    frame=30831 fps=153 q=32.0 size=   36474kB time=00:21:26.03 bitrate= 232.3kbits/s dup=1 drop=0 speed=6.37x    frame=30907 fps=153 q=32.0 size=   36563kB time=00:21:29.23 bitrate= 232.3kbits/s dup=1 drop=0 speed=6.37x    frame=30988 fps=153 q=32.0 size=   36654kB time=00:21:32.60 bitrate= 232.3kbits/s dup=1 drop=0 speed=6.37x    frame=31057 fps=153 q=32.0 size=   36737kB time=00:21:35.51 bitrate= 232.3kbits/s dup=1 drop=0 speed=6.37x    frame=31117 fps=153 q=32.0 size=   36820kB time=00:21:37.98 bitrate= 232.4kbits/s dup=1 drop=0 speed=6.37x    frame=31170 fps=152 q=32.0 size=   36935kB time=00:21:40.20 bitrate= 232.7kbits/s dup=1 drop=0 speed=6.36x    frame=31217 fps=152 q=32.0 size=   37075kB time=00:21:42.16 bitrate= 233.2kbits/s dup=1 drop=0 speed=6.35x    frame=31264 fps=152 q=32.0 size=   37186kB time=00:21:44.12 bitrate= 233.6kbits/s dup=1 drop=0 speed=6.35x    frame=31314 fps=152 q=32.0 size=   37291kB time=00:21:46.21 bitrate= 233.9kbits/s dup=1 drop=0 speed=6.34x    frame=31362 fps=152 q=32.0 size=   37383kB time=00:21:48.22 bitrate= 234.1kbits/s dup=1 drop=0 speed=6.33x    frame=31410 fps=152 q=32.0 size=   37484kB time=00:21:50.18 bitrate= 234.4kbits/s dup=1 drop=0 speed=6.33x    frame=31451 fps=152 q=32.0 size=   37577kB time=00:21:51.93 bitrate= 234.6kbits/s dup=1 drop=0 speed=6.32x    frame=31482 fps=151 q=32.0 size=   37702kB time=00:21:53.21 bitrate= 235.2kbits/s dup=1 drop=0 speed=6.31x    frame=31507 fps=151 q=29.0 size=   37785kB time=00:21:54.28 bitrate= 235.5kbits/s dup=1 drop=0 speed= 6.3x    frame=31568 fps=151 q=32.0 size=   37905kB time=00:21:56.80 bitrate= 235.8kbits/s dup=1 drop=0 speed= 6.3x    frame=31640 fps=151 q=32.0 size=   37985kB time=00:21:59.78 bitrate= 235.8kbits/s dup=1 drop=0 speed= 6.3x    frame=31676 fps=151 q=32.0 size=   38113kB time=00:22:01.32 bitrate= 236.3kbits/s dup=1 drop=0 speed=6.29x    frame=31717 fps=151 q=32.0 size=   38247kB time=00:22:03.03 bitrate= 236.8kbits/s dup=1 drop=0 speed=6.28x    frame=31765 fps=150 q=32.0 size=   38365kB time=00:22:05.03 bitrate= 237.2kbits/s dup=1 drop=0 speed=6.27x    frame=31808 fps=150 q=32.0 size=   38449kB time=00:22:06.82 bitrate= 237.4kbits/s dup=1 drop=0 speed=6.27x    frame=31868 fps=150 q=32.0 size=   38546kB time=00:22:09.30 bitrate= 237.5kbits/s dup=1 drop=0 speed=6.26x    frame=31917 fps=150 q=32.0 size=   38631kB time=00:22:11.39 bitrate= 237.7kbits/s dup=1 drop=0 speed=6.26x    frame=31963 fps=150 q=32.0 size=   38712kB time=00:22:13.31 bitrate= 237.9kbits/s dup=1 drop=0 speed=6.25x    frame=32011 fps=150 q=32.0 size=   38838kB time=00:22:15.27 bitrate= 238.3kbits/s dup=1 drop=0 speed=6.24x    frame=32053 fps=150 q=32.0 size=   38937kB time=00:22:17.02 bitrate= 238.6kbits/s dup=1 drop=0 speed=6.24x    frame=32108 fps=149 q=32.0 size=   39013kB time=00:22:19.32 bitrate= 238.6kbits/s dup=1 drop=0 speed=6.23x    frame=32155 fps=149 q=32.0 size=   39104kB time=00:22:21.29 bitrate= 238.8kbits/s dup=1 drop=0 speed=6.23x    frame=32196 fps=149 q=32.0 size=   39209kB time=00:22:22.99 bitrate= 239.2kbits/s dup=1 drop=0 speed=6.22x    frame=32246 fps=149 q=32.0 size=   39346kB time=00:22:25.08 bitrate= 239.6kbits/s dup=1 drop=0 speed=6.21x    frame=32300 fps=149 q=32.0 size=   39459kB time=00:22:27.35 bitrate= 239.9kbits/s dup=1 drop=0 speed=6.21x    frame=32353 fps=149 q=32.0 size=   39588kB time=00:22:29.52 bitrate= 240.3kbits/s dup=1 drop=0 speed= 6.2x    frame=32417 fps=149 q=29.0 size=   39668kB time=00:22:32.21 bitrate= 240.3kbits/s dup=1 drop=0 speed= 6.2x    frame=32465 fps=149 q=32.0 size=   39796kB time=00:22:34.21 bitrate= 240.7kbits/s dup=1 drop=0 speed= 6.2x    frame=32509 fps=148 q=32.0 size=   39917kB time=00:22:36.05 bitrate= 241.1kbits/s dup=1 drop=0 speed=6.19x    frame=32568 fps=148 q=32.0 size=   40036kB time=00:22:38.52 bitrate= 241.4kbits/s dup=1 drop=0 speed=6.19x    frame=32625 fps=148 q=32.0 size=   40141kB time=00:22:40.87 bitrate= 241.6kbits/s dup=1 drop=0 speed=6.18x    frame=32665 fps=148 q=32.0 size=   40278kB time=00:22:42.53 bitrate= 242.2kbits/s dup=1 drop=0 speed=6.18x    frame=32725 fps=148 q=32.0 size=   40388kB time=00:22:45.05 bitrate= 242.4kbits/s dup=1 drop=0 speed=6.17x    frame=32764 fps=148 q=32.0 size=   40459kB time=00:22:46.72 bitrate= 242.5kbits/s dup=1 drop=0 speed=6.17x    frame=32837 fps=148 q=32.0 size=   40567kB time=00:22:49.70 bitrate= 242.6kbits/s dup=1 drop=0 speed=6.17x    frame=32917 fps=148 q=32.0 size=   40658kB time=00:22:53.07 bitrate= 242.6kbits/s dup=1 drop=0 speed=6.17x    frame=32984 fps=148 q=32.0 size=   40769kB time=00:22:55.85 bitrate= 242.7kbits/s dup=1 drop=0 speed=6.17x    frame=33057 fps=148 q=32.0 size=   40846kB time=00:22:58.92 bitrate= 242.7kbits/s dup=1 drop=0 speed=6.17x    frame=33167 fps=148 q=32.0 size=   40924kB time=00:23:03.48 bitrate= 242.3kbits/s dup=1 drop=0 speed=6.17x    frame=33235 fps=148 q=32.0 size=   41009kB time=00:23:06.34 bitrate= 242.3kbits/s dup=1 drop=0 speed=6.17x    frame=33294 fps=148 q=32.0 size=   41074kB time=00:23:08.82 bitrate= 242.3kbits/s dup=1 drop=0 speed=6.17x    frame=33379 fps=148 q=32.0 size=   41165kB time=00:23:12.32 bitrate= 242.2kbits/s dup=1 drop=0 speed=6.17x    frame=33459 fps=148 q=32.0 size=   41216kB time=00:23:15.69 bitrate= 241.9kbits/s dup=1 drop=0 speed=6.17x    frame=33523 fps=148 q=32.0 size=   41275kB time=00:23:18.33 bitrate= 241.8kbits/s dup=1 drop=0 speed=6.17x    frame=33610 fps=148 q=32.0 size=   41361kB time=00:23:21.96 bitrate= 241.7kbits/s dup=1 drop=0 speed=6.17x    frame=33692 fps=148 q=32.0 size=   41439kB time=00:23:25.37 bitrate= 241.6kbits/s dup=1 drop=0 speed=6.17x    frame=33766 fps=148 q=32.0 size=   41577kB time=00:23:28.49 bitrate= 241.8kbits/s dup=1 drop=0 speed=6.17x    frame=33837 fps=148 q=32.0 size=   41664kB time=00:23:31.43 bitrate= 241.8kbits/s dup=1 drop=0 speed=6.17x    frame=33889 fps=148 q=32.0 size=   41786kB time=00:23:33.61 bitrate= 242.2kbits/s dup=1 drop=0 speed=6.17x    frame=33941 fps=148 q=32.0 size=   41857kB time=00:23:35.78 bitrate= 242.2kbits/s dup=1 drop=0 speed=6.16x    frame=33994 fps=148 q=32.0 size=   41937kB time=00:23:38.00 bitrate= 242.3kbits/s dup=1 drop=0 speed=6.16x    frame=34048 fps=148 q=32.0 size=   42049kB time=00:23:40.26 bitrate= 242.5kbits/s dup=1 drop=0 speed=6.16x    frame=34088 fps=147 q=32.0 size=   42155kB time=00:23:41.88 bitrate= 242.9kbits/s dup=1 drop=0 speed=6.15x    frame=34126 fps=147 q=32.0 size=   42237kB time=00:23:43.46 bitrate= 243.1kbits/s dup=1 drop=0 speed=6.14x    frame=34184 fps=147 q=32.0 size=   42308kB time=00:23:45.89 bitrate= 243.1kbits/s dup=1 drop=0 speed=6.14x    frame=34234 fps=147 q=32.0 size=   42376kB time=00:23:47.99 bitrate= 243.1kbits/s dup=1 drop=0 speed=6.13x    frame=34286 fps=147 q=32.0 size=   42499kB time=00:23:50.16 bitrate= 243.4kbits/s dup=1 drop=0 speed=6.13x    frame=34324 fps=147 q=32.0 size=   42592kB time=00:23:51.78 bitrate= 243.7kbits/s dup=1 drop=0 speed=6.12x    frame=34382 fps=147 q=32.0 size=   42685kB time=00:23:54.17 bitrate= 243.8kbits/s dup=1 drop=0 speed=6.12x    frame=34431 fps=147 q=32.0 size=   42781kB time=00:23:56.22 bitrate= 244.0kbits/s dup=1 drop=0 speed=6.11x    frame=34539 fps=147 q=32.0 size=   42894kB time=00:24:00.70 bitrate= 243.9kbits/s dup=1 drop=0 speed=6.12x    frame=34610 fps=147 q=32.0 size=   42975kB time=00:24:03.69 bitrate= 243.9kbits/s dup=1 drop=0 speed=6.12x    frame=34654 fps=147 q=32.0 size=   43016kB time=00:24:05.52 bitrate= 243.8kbits/s dup=1 drop=0 speed=6.11x    frame=34734 fps=147 q=32.0 size=   43134kB time=00:24:08.85 bitrate= 243.9kbits/s dup=1 drop=0 speed=6.11x    frame=34814 fps=147 q=32.0 size=   43267kB time=00:24:12.18 bitrate= 244.1kbits/s dup=1 drop=0 speed=6.12x    frame=35008 fps=147 q=32.0 size=   43409kB time=00:24:20.28 bitrate= 243.5kbits/s dup=1 drop=0 speed=6.14x    [mp4 @ 0x2556e60] Starting second pass: moving the moov atom to the beginning of the file
frame=35179 fps=148 q=-1.0 Lsize=   44360kB time=00:24:27.24 bitrate= 247.7kbits/s dup=1 drop=0 speed=6.15x    
video:33871kB audio:9655kB subtitle:0kB other streams:0kB global headers:0kB muxing overhead: 1.916887%
[libx264 @ 0x25db1e0] frame I:316   Avg QP:20.85  size: 12890
[libx264 @ 0x25db1e0] frame P:10238 Avg QP:23.95  size:  2277
[libx264 @ 0x25db1e0] frame B:24625 Avg QP:26.41  size:   296
[libx264 @ 0x25db1e0] consecutive B-frames:  2.5% 11.2%  3.9% 82.4%
[libx264 @ 0x25db1e0] mb I  I16..4: 28.7% 52.5% 18.8%
[libx264 @ 0x25db1e0] mb P  I16..4:  5.1%  5.2%  1.3%  P16..4: 26.9%  4.1%  2.9%  0.1%  0.0%    skip:54.3%
[libx264 @ 0x25db1e0] mb B  I16..4:  0.2%  0.2%  0.1%  B16..8: 12.3%  0.8%  0.1%  direct: 0.2%  skip:86.1%  L0:42.6% L1:56.0% BI: 1.4%
[libx264 @ 0x25db1e0] 8x8 transform intra:46.2% inter:59.0%
[libx264 @ 0x25db1e0] coded y,uvDC,uvAC intra: 28.4% 56.0% 9.9% inter: 1.1% 3.4% 0.0%
[libx264 @ 0x25db1e0] i16 v,h,dc,p: 43% 30% 19%  8%
[libx264 @ 0x25db1e0] i8 v,h,dc,ddl,ddr,vr,hd,vl,hu: 24% 19% 40%  3%  2%  3%  3%  3%  3%
[libx264 @ 0x25db1e0] i4 v,h,dc,ddl,ddr,vr,hd,vl,hu: 29% 19% 22%  5%  5%  6%  5%  5%  4%
[libx264 @ 0x25db1e0] i8c dc,h,v,p: 44% 25% 25%  6%
[libx264 @ 0x25db1e0] Weighted P-Frames: Y:1.0% UV:0.8%
[libx264 @ 0x25db1e0] ref P L0: 65.1% 10.1% 11.4%  3.8%  2.8%  2.6%  2.4%  1.7%  0.2%  0.0%
[libx264 @ 0x25db1e0] ref B L0: 88.2%  5.7%  2.8%  1.0%  0.8%  0.9%  0.6%
[libx264 @ 0x25db1e0] ref B L1: 97.0%  3.0%
[libx264 @ 0x25db1e0] kb/s:189.11
